# xmcd
#
# Track frame offsets: 
#        150
#        1337
#        11573
#        23235
#        34350
#        40160
#        43797
#        89485
#        97558
#        102121
#        110987
#        113891
#        132278
#        134782
#        139728
#        142446
#        148266
#        155969
#        196645
#        208083
#        221610
#        229603
#        250794
#        265927
#        284196
#        303455
#
# Disc length: 4282 seconds
#
# Revision: 0
# Processed by: cddbd v1.5.2PL0 Copyright (c) Steve Scherf et al.
# Submitted via: ExactAudioCopy v0.95b4
#
DISCID=9310b81a
DTITLE=The Beatles  - AB  Road - Complete Purple Chick Set v1.1 Jan.26
DTITLE=Various Artist - D1  FLAC
DYEAR=1900
DGENRE=
TTITLE0=Roll announcement
TTITLE1=Dialogue
TTITLE2=Isn't It A Pity 26.01
TTITLE3=Windows, Windows 26.02
TTITLE4=Let It Down 26.03
TTITLE5=Let It Down 26.04
TTITLE6=Octopus's Garden 26.05
TTITLE7=Octopus's Garden 26.06
TTITLE8=Octopus's Garden 26.07
TTITLE9=Octopus's Garden 26.08
TTITLE10=Unknown 26.09
TTITLE11=Octopus's Garden 26.10
TTITLE12=Little Piece Of Leather 26.11
TTITLE13=Two Of Us 26.12
TTITLE14=Dig A Pony 26.13
TTITLE15=Octopus's Garden 26.14
TTITLE16=Octopus's Garden 26.15
TTITLE17=Octopus's Garden 26.16
TTITLE18=Octopus's Garden 26.1
TTITLE19=For You Blue 25.45P
TTITLE20=For You Blue 25.45P
TTITLE21=For You Blue 25.46P
TTITLE22=For You Blue 25.46P
TTITLE23=For You Blue 25.46P
TTITLE24=Let It Be 25.81P
TTITLE25=Let It Be 25.81P
EXTD=
EXTT0=
EXTT1=
EXTT2=
EXTT3=
EXTT4=
EXTT5=
EXTT6=
EXTT7=
EXTT8=
EXTT9=
EXTT10=
EXTT11=
EXTT12=
EXTT13=
EXTT14=
EXTT15=
EXTT16=
EXTT17=
EXTT18=
EXTT19=
EXTT20=
EXTT21=
EXTT22=
EXTT23=
EXTT24=
EXTT25=
PLAYORDER=
